<svg width="14" height="14" viewBox="0 0 14 14" fill="none" xmlns="http://www.w3.org/2000/svg">
<g id="Pen" clip-path="url(#clip0_7623_53288)">
<path id="Vector" d="M8.37703 2.38052L8.91771 1.83984C9.81354 0.944012 11.266 0.944012 12.1618 1.83984C13.0576 2.73567 13.0576 4.18809 12.1618 5.08392L11.6211 5.6246M8.37703 2.38052C8.37703 2.38052 8.44461 3.52946 9.45839 4.54324C10.4722 5.55701 11.6211 5.6246 11.6211 5.6246M8.37703 2.38052L3.40631 7.35124C3.06963 7.68792 2.90129 7.85626 2.75652 8.04187C2.58574 8.26082 2.43932 8.49773 2.31986 8.7484C2.21859 8.9609 2.1433 9.18675 1.99274 9.63845L1.35471 11.5525M11.6211 5.6246L6.65038 10.5953C6.31371 10.932 6.14537 11.1003 5.95975 11.2451C5.7408 11.4159 5.5039 11.5623 5.25323 11.6818C5.04073 11.783 4.81488 11.8583 4.36318 12.0089L2.44911 12.6469M2.44911 12.6469L1.98123 12.8029C1.75895 12.877 1.51388 12.8191 1.34819 12.6534C1.18251 12.4878 1.12466 12.2427 1.19875 12.0204L1.35471 11.5525M2.44911 12.6469L1.35471 11.5525" stroke="#181818"/>
</g>
<defs>
<clipPath id="clip0_7623_53288">
<rect width="14" height="14" fill="white"/>
</clipPath>
</defs>
</svg>
