<svg width="28" height="28" viewBox="0 0 28 28" fill="none" xmlns="http://www.w3.org/2000/svg">
<path d="M14 25.6667C20.4433 25.6667 25.6667 20.4433 25.6667 14C25.6667 7.55668 20.4433 2.33333 14 2.33333C7.55668 2.33333 2.33333 7.55668 2.33333 14C2.33333 15.8663 2.77155 17.6302 3.5507 19.1945C3.75776 19.6103 3.82668 20.0854 3.70664 20.534L3.01176 23.1311C2.71011 24.2585 3.74152 25.2899 4.86891 24.9882L7.46595 24.2934C7.91459 24.1733 8.38974 24.2422 8.80545 24.4493C10.3698 25.2284 12.1337 25.6667 14 25.6667Z" stroke="#666666" stroke-width="2"/>
<path d="M9.33333 12.25H18.6667" stroke="#666666" stroke-width="2" stroke-linecap="round"/>
<path d="M9.33333 16.3333H15.75" stroke="#666666" stroke-width="2" stroke-linecap="round"/>
</svg>
